# xmcd
#
# Track frame offsets:
# 182
# 16712
# 31097
# 52335
# 73652
# 92235
# 116910
# 130547
# 145337
# 161317
# 177625
# 196055
# 210422
# 225407
# 241912
# 264215
# 276522
#
# Disc length: 3916 seconds
#
#
# Revision: 0
# Processed by: cddbd v1.4PL0 Copyright (c) Steve Scherf et al.
# Submitted via: FreeRIP 2.40 
#
DISCID=e90f4a11
DTITLE=John Denver - Legends
DYEAR=2001
DGENRE=Country
TTITLE0=Leaving on a Jet Plane
TTITLE1=Take me Home, Country Roads
TTITLE2=Rocky Mountain High
TTITLE3=Back Home Again
TTITLE4=Poems, Prayers ad Promises
TTITLE5=Sweet Surrender
TTITLE6=Annie's Song
TTITLE7=Rhymes and Reasons
TTITLE8=I'm Sorry
TTITLE9=Calypso
TTITLE10=Farewell Andromeda
TTITLE11=How can I Leave you again
TTITLE12=For you
TTITLE13=Goodbye again
TTITLE14=Falling out of Love
TTITLE15=Love is the Master
TTITLE16=Seasons of the Heart
EXTD=
EXTT0=
EXTT1=
EXTT2=
EXTT3=
EXTT4=
EXTT5=
EXTT6=
EXTT7=
EXTT8=
EXTT9=
EXTT10=
EXTT11=
EXTT12=
EXTT13=
EXTT14=
EXTT15=
EXTT16=
PLAYORDER=
